<?xml version='1.0' encoding='UTF-8'?>
<svg xmlns="http://www.w3.org/2000/svg" version="1.1" width="1392" height="108" viewBox="213.38989 148.35696 278.40100 21.43401"><path transform="matrix(1,0,0,-1,486.76588,168.90497)" d="M0 0H4.525V19.663H.883V6.196H.828L-3.973 19.663H-8.552V0H-4.911V13.77H-4.856ZM-19.174 9.831C-19.174 15.807-19.919 20.048-25.878 20.048-31.837 20.048-32.582 15.807-32.582 9.831-32.582 3.856-31.837-.386-25.878-.386-19.919-.386-19.174 3.856-19.174 9.831M-23.147 9.831C-23.147 4.544-23.533 2.534-25.878 2.534-28.223 2.534-28.609 4.544-28.609 9.831-28.609 15.091-28.223 17.129-25.878 17.129-23.533 17.129-23.147 15.091-23.147 9.831M-47.369 0H-43.396V19.663H-47.369ZM-61.853 16.413H-57.549V19.663H-70.13V16.413H-65.826V0H-61.853ZM-81.358 0H-77.22L-82.434 19.663H-87.345L-92.559 0H-88.421L-87.511 4.158H-82.269ZM-82.958 7.408H-86.821L-84.917 16.248H-84.862ZM-105.747 0H-101.443V.165C-102.188 .578-102.298 1.597-102.326 3.69-102.408 7.849-102.795 9.336-105.498 9.694V9.749C-103.264 10.217-102.215 11.952-102.215 14.596-102.215 17.983-104.174 19.663-107.457 19.663H-114.796V0H-110.823V8.317H-108.698C-107.071 8.317-106.436 7.38-106.354 5.838L-106.243 2.065C-106.216 1.294-106.16 .551-105.747 0M-106.188 14.017C-106.188 11.897-107.264 11.071-109.168 11.071H-110.823V16.744H-108.947C-107.098 16.744-106.188 15.835-106.188 14.017M-136.342 0H-125.058V3.25H-132.369V8.537H-125.748V11.787H-132.369V16.413H-125.334V19.663H-136.342ZM-150.688 10.327V10.382C-148.701 10.933-147.708 12.558-147.708 14.678-147.708 18.451-150.053 19.663-153.309 19.663H-159.958V0H-153.254C-148.619 0-147.101 2.671-147.101 5.756-147.101 8.399-148.481 10.024-150.688 10.327M-151.681 14.183C-151.681 12.31-152.647 11.594-154.854 11.594H-155.985V16.744H-154.55C-152.564 16.744-151.681 16.055-151.681 14.183M-151.24 5.893C-151.24 3.608-152.536 2.919-154.44 2.919H-155.985V8.84H-154.274C-152.536 8.84-151.24 8.179-151.24 5.893M-174.524 0H-170.221V.165C-170.965 .578-171.076 1.597-171.103 3.69-171.186 7.849-171.572 9.336-174.276 9.694V9.749C-172.041 10.217-170.993 11.952-170.993 14.596-170.993 17.983-172.952 19.663-176.235 19.663H-183.573V0H-179.601V8.317H-177.476C-175.849 8.317-175.214 7.38-175.131 5.838L-175.021 2.065C-174.993 1.294-174.938 .551-174.524 0M-174.966 14.017C-174.966 11.897-176.042 11.071-177.945 11.071H-179.601V16.744H-177.725C-175.876 16.744-174.966 15.835-174.966 14.017M-205.12 0H-193.836V3.25H-201.147V8.537H-194.526V11.787H-201.147V16.413H-194.112V19.663H-205.12ZM-219.383 0-214.858 19.663H-218.969L-221.893 5.122H-221.976L-224.763 19.663H-229.011L-224.487 0ZM-249.261 0H-237.977V3.25H-245.288V8.537H-238.667V11.787H-245.288V16.413H-238.253V19.663H-249.261ZM-263.827 0H-259.524V.165C-260.269 .578-260.379 1.597-260.406 3.69-260.489 7.849-260.876 9.336-263.579 9.694V9.749C-261.344 10.217-260.296 11.952-260.296 14.596-260.296 17.983-262.255 19.663-265.538 19.663H-272.876V0H-268.904V8.317H-266.779C-265.152 8.317-264.517 7.38-264.434 5.838L-264.324 2.065C-264.296 1.294-264.241 .551-263.827 0M-264.269 14.017C-264.269 11.897-265.345 11.071-267.248 11.071H-268.904V16.744H-267.028C-265.179 16.744-264.269 15.835-264.269 14.017" fill="#231f20"/>
</svg>